<?xml version="1.0" encoding="UTF-8"?>
<svg width="120" height="120" viewBox="0 0 120 120" fill="none" xmlns="http://www.w3.org/2000/svg">
  <circle cx="60" cy="60" r="60" fill="#60a5fa" opacity="0.1" />
  
  <!-- Main Cloud -->
  <path d="M35,55 C35,47 41,40 50,40 C56,40 60,44 62,48 C64,43 70,40 75,40 C84,40 90,47 90,55 C90,63 84,70 75,70 L50,70 C41,70 35,63 35,55 Z" fill="#ffffff" stroke="#60a5fa" stroke-width="2.5">
    <animate attributeName="opacity" values="1;0.9;1" dur="5s" repeatCount="indefinite" />
  </path>
  
  <!-- Small Cloud 1 -->
  <path d="M20,45 C20,41 23,38 27,38 C31,38 34,41 34,45 C34,49 31,52 27,52 L27,52 C23,52 20,49 20,45 Z" fill="#ffffff" stroke="#60a5fa" stroke-width="1.5" opacity="0.8">
    <animate attributeName="transform" type="translate" values="0,0;3,-2;0,0" dur="7s" repeatCount="indefinite" />
  </path>
  
  <!-- Small Cloud 2 -->
  <path d="M85,30 C85,26 88,23 92,23 C96,23 99,26 99,30 C99,34 96,37 92,37 L92,37 C88,37 85,34 85,30 Z" fill="#ffffff" stroke="#60a5fa" stroke-width="1.5" opacity="0.8">
    <animate attributeName="transform" type="translate" values="0,0;-3,-2;0,0" dur="8s" repeatCount="indefinite" />
  </path>
  
  <!-- Connection Elements -->
  <g>
    <!-- Download Icon -->
    <g transform="translate(60, 80)">
      <circle cx="0" cy="0" r="10" fill="#ffffff" stroke="#60a5fa" stroke-width="1.5" />
      <path d="M0,-5 L0,3 M-3,0 L0,3 L3,0" stroke="#60a5fa" stroke-width="1.5" fill="none" />
      <animate attributeName="opacity" values="0.8;1;0.8" dur="3s" repeatCount="indefinite" />
    </g>
    
    <!-- Connection Lines -->
    <line x1="60" y1="70" x2="60" y2="70" stroke="#60a5fa" stroke-width="1.5" stroke-dasharray="2,2">
      <animate attributeName="x2" values="60;60" dur="0.5s" repeatCount="1" />
      <animate attributeName="y2" values="70;80" dur="0.5s" repeatCount="1" />
    </line>
    
    <line x1="35" y1="55" x2="35" y2="55" stroke="#60a5fa" stroke-width="1" stroke-dasharray="2,2" opacity="0.6">
      <animate attributeName="x2" values="35;25" dur="0.5s" repeatCount="1" begin="0.5s" />
      <animate attributeName="stroke-dashoffset" values="0;6" dur="2s" repeatCount="indefinite" begin="0.5s" />
    </line>
    
    <line x1="90" y1="55" x2="90" y2="55" stroke="#60a5fa" stroke-width="1" stroke-dasharray="2,2" opacity="0.6">
      <animate attributeName="x2" values="90;100" dur="0.5s" repeatCount="1" begin="0.5s" />
      <animate attributeName="stroke-dashoffset" values="0;6" dur="2s" repeatCount="indefinite" begin="0.5s" />
    </line>
  </g>
  
  <!-- Device Icons -->
  <g>
    <!-- Mobile -->
    <g transform="translate(30, 100)">
      <rect x="-5" y="-10" width="10" height="15" rx="2" fill="#ffffff" stroke="#60a5fa" stroke-width="1" />
      <line x1="-2" y1="-7" x2="2" y2="-7" stroke="#60a5fa" stroke-width="1" />
      <rect x="-3" y="-4" width="6" height="6" rx="1" fill="#60a5fa" opacity="0.7" />
      <animate attributeName="opacity" values="0.7;1;0.7" dur="4s" repeatCount="indefinite" />
    </g>
    
    <!-- Laptop -->
    <g transform="translate(60, 100)">
      <path d="M-10,-6 L-10,-1 L-12,3 L8,3 L6,-1 L6,-6 Z" fill="#ffffff" stroke="#60a5fa" stroke-width="1" />
      <rect x="-8" y="-5" width="12" height="5" rx="1" fill="#60a5fa" opacity="0.2" />
      <animate attributeName="opacity" values="0.7;1;0.7" dur="5s" repeatCount="indefinite" />
    </g>
    
    <!-- Desktop -->
    <g transform="translate(90, 100)">
      <rect x="-7" y="-10" width="14" height="10" rx="1" fill="#ffffff" stroke="#60a5fa" stroke-width="1" />
      <rect x="-5" y="-8" width="10" height="6" rx="1" fill="#60a5fa" opacity="0.2" />
      <rect x="-3" y="0" width="6" height="5" rx="1" fill="#ffffff" stroke="#60a5fa" stroke-width="1" />
      <animate attributeName="opacity" values="0.7;1;0.7" dur="3s" repeatCount="indefinite" />
    </g>
  </g>
  
  <!-- Data Streams -->
  <g>
    <!-- Stream to Mobile -->
    <path d="M60,80 Q48,90 30,90" stroke="#60a5fa" stroke-width="1" fill="none" stroke-dasharray="2,2" opacity="0.6">
      <animate attributeName="stroke-dashoffset" values="0;10" dur="3s" repeatCount="indefinite" begin="1s" />
    </path>
    
    <!-- Stream to Desktop -->
    <path d="M60,80 Q72,90 90,90" stroke="#60a5fa" stroke-width="1" fill="none" stroke-dasharray="2,2" opacity="0.6">
      <animate attributeName="stroke-dashoffset" values="0;10" dur="3s" repeatCount="indefinite" begin="1s" />
    </path>
  </g>
  
  <!-- Animated Particles -->
  <g>
    <circle cx="45" cy="85" r="1.5" fill="#60a5fa" opacity="0">
      <animate attributeName="opacity" values="0;1;0" dur="2s" repeatCount="indefinite" begin="1s" />
      <animate attributeName="cx" values="60;45" dur="2s" repeatCount="indefinite" begin="1s" />
      <animate attributeName="cy" values="80;85" dur="2s" repeatCount="indefinite" begin="1s" />
    </circle>
    
    <circle cx="75" cy="85" r="1.5" fill="#60a5fa" opacity="0">
      <animate attributeName="opacity" values="0;1;0" dur="2s" repeatCount="indefinite" begin="1.5s" />
      <animate attributeName="cx" values="60;75" dur="2s" repeatCount="indefinite" begin="1.5s" />
      <animate attributeName="cy" values="80;85" dur="2s" repeatCount="indefinite" begin="1.5s" />
    </circle>
  </g>
  
  <!-- Server Icon Inside Cloud -->
  <g transform="translate(62, 55)">
    <rect x="-6" y="-8" width="12" height="16" rx="1" fill="#f3f4f6" stroke="#60a5fa" stroke-width="1" />
    <line x1="-4" y1="-4" x2="4" y2="-4" stroke="#60a5fa" stroke-width="1" />
    <line x1="-4" y1="0" x2="4" y2="0" stroke="#60a5fa" stroke-width="1" />
    <line x1="-4" y1="4" x2="4" y2="4" stroke="#60a5fa" stroke-width="1" />
    <circle cx="-2" cy="-4" r="0.8" fill="#60a5fa">
      <animate attributeName="opacity" values="0.7;1;0.7" dur="1.5s" repeatCount="indefinite" />
    </circle>
    <circle cx="-2" cy="0" r="0.8" fill="#60a5fa">
      <animate attributeName="opacity" values="0.7;1;0.7" dur="2s" repeatCount="indefinite" begin="0.5s" />
    </circle>
    <circle cx="-2" cy="4" r="0.8" fill="#60a5fa">
      <animate attributeName="opacity" values="0.7;1;0.7" dur="1.8s" repeatCount="indefinite" begin="1s" />
    </circle>
  </g>
</svg> 