<?xml version="1.0" encoding="UTF-8"?>
<svg width="600" height="400" viewBox="0 0 600 400" fill="none" xmlns="http://www.w3.org/2000/svg">
  <!-- Background Shapes -->
  <circle cx="300" cy="200" r="150" fill="#4f46e5" opacity="0.1">
    <animate attributeName="r" values="150;170;150" dur="10s" repeatCount="indefinite" />
  </circle>
  <circle cx="300" cy="200" r="100" fill="#8b5cf6" opacity="0.15">
    <animate attributeName="r" values="100;120;100" dur="7s" repeatCount="indefinite" />
  </circle>

  <!-- Code Window -->
  <rect x="150" y="100" width="300" height="200" rx="10" fill="#1f2937" />
  
  <!-- Window Header -->
  <rect x="150" y="100" width="300" height="30" rx="10" fill="#374151" />
  <circle cx="170" cy="115" r="5" fill="#ef4444" />
  <circle cx="190" cy="115" r="5" fill="#f59e0b" />
  <circle cx="210" cy="115" r="5" fill="#10b981" />
  
  <!-- Code Lines Group -->
  <g id="code-lines">
    <!-- Line 1 -->
    <rect x="170" y="150" width="80" height="8" rx="4" fill="#8b5cf6" opacity="0.8">
      <animate attributeName="width" values="80;120;80" dur="3s" repeatCount="indefinite" />
    </rect>
    <rect x="260" y="150" width="40" height="8" rx="4" fill="#60a5fa" opacity="0.8" />
    <rect x="310" y="150" width="60" height="8" rx="4" fill="#34d399" opacity="0.8" />

    <!-- Line 2 -->
    <rect x="190" y="170" width="60" height="8" rx="4" fill="#60a5fa" opacity="0.8" />
    <rect x="260" y="170" width="100" height="8" rx="4" fill="#8b5cf6" opacity="0.8">
      <animate attributeName="width" values="100;140;100" dur="4s" repeatCount="indefinite" />
    </rect>

    <!-- Line 3 -->
    <rect x="170" y="190" width="120" height="8" rx="4" fill="#34d399" opacity="0.8" />
    <rect x="300" y="190" width="40" height="8" rx="4" fill="#8b5cf6" opacity="0.8" />

    <!-- Line 4 -->
    <rect x="190" y="210" width="80" height="8" rx="4" fill="#60a5fa" opacity="0.8" />
    <rect x="280" y="210" width="60" height="8" rx="4" fill="#34d399" opacity="0.8">
      <animate attributeName="width" values="60;90;60" dur="5s" repeatCount="indefinite" />
    </rect>

    <!-- Line 5 -->
    <rect x="170" y="230" width="40" height="8" rx="4" fill="#8b5cf6" opacity="0.8" />
    <rect x="220" y="230" width="110" height="8" rx="4" fill="#60a5fa" opacity="0.8" />
  </g>

  <!-- Floating Elements -->
  <g id="floating-elements">
    <!-- Gear 1 -->
    <g transform="translate(100, 120)">
      <path d="M10,0 L12,5 L17,5 L13,9 L15,14 L10,11 L5,14 L7,9 L3,5 L8,5 Z" fill="#34d399">
        <animateTransform attributeName="transform" type="rotate" from="0 10 10" to="360 10 10" dur="20s" repeatCount="indefinite" />
      </path>
    </g>

    <!-- Gear 2 -->
    <g transform="translate(450, 150)">
      <path d="M15,0 L18,8 L26,8 L20,14 L23,22 L15,17 L7,22 L10,14 L4,8 L12,8 Z" fill="#8b5cf6">
        <animateTransform attributeName="transform" type="rotate" from="0 15 15" to="-360 15 15" dur="25s" repeatCount="indefinite" />
      </path>
    </g>

    <!-- Cloud 1 -->
    <g transform="translate(480, 80)">
      <path d="M25,10 Q40,0 55,10 Q70,5 75,20 Q85,15 95,25 Q95,40 75,40 L30,40 Q10,40 10,25 Q10,10 25,10" fill="#60a5fa" opacity="0.2">
        <animate attributeName="transform" type="translate" values="0,0;-10,0;0,0" dur="7s" repeatCount="indefinite" />
      </path>
    </g>

    <!-- Cloud 2 -->
    <g transform="translate(80, 250)">
      <path d="M15,5 Q25,0 35,5 Q45,0 50,10 Q55,5 65,15 Q65,25 50,25 L20,25 Q5,25 5,15 Q5,5 15,5" fill="#8b5cf6" opacity="0.2">
        <animate attributeName="transform" type="translate" values="0,0;10,0;0,0" dur="9s" repeatCount="indefinite" />
      </path>
    </g>

    <!-- Data Flow Lines -->
    <g>
      <path d="M50,200 Q150,150 250,200" stroke="#34d399" stroke-width="2" fill="none" stroke-dasharray="5,5">
        <animate attributeName="stroke-dashoffset" from="0" to="100" dur="10s" repeatCount="indefinite" />
      </path>

      <path d="M350,200 Q450,250 550,200" stroke="#60a5fa" stroke-width="2" fill="none" stroke-dasharray="5,5">
        <animate attributeName="stroke-dashoffset" from="0" to="-100" dur="8s" repeatCount="indefinite" />
      </path>
    </g>
  </g>

  <!-- Small Dots -->
  <g>
    <circle cx="100" cy="100" r="3" fill="#8b5cf6">
      <animate attributeName="opacity" values="0.3;1;0.3" dur="4s" repeatCount="indefinite" />
    </circle>
    <circle cx="500" cy="100" r="2" fill="#34d399">
      <animate attributeName="opacity" values="0.3;1;0.3" dur="3s" repeatCount="indefinite" />
    </circle>
    <circle cx="150" cy="320" r="2" fill="#60a5fa">
      <animate attributeName="opacity" values="0.3;1;0.3" dur="5s" repeatCount="indefinite" />
    </circle>
    <circle cx="450" cy="320" r="3" fill="#8b5cf6">
      <animate attributeName="opacity" values="0.3;1;0.3" dur="6s" repeatCount="indefinite" />
    </circle>
  </g>
</svg> 