<?xml version="1.0" encoding="UTF-8"?>
<svg width="600" height="400" viewBox="0 0 600 400" fill="none" xmlns="http://www.w3.org/2000/svg">
  <!-- Background -->
  <rect width="600" height="400" fill="#e5e7eb" />
  
  <!-- Grid Pattern -->
  <g opacity="0.3" stroke="#9ca3af" stroke-width="0.5">
    <!-- Horizontal Lines -->
    <line x1="0" y1="50" x2="600" y2="50" />
    <line x1="0" y1="100" x2="600" y2="100" />
    <line x1="0" y1="150" x2="600" y2="150" />
    <line x1="0" y1="200" x2="600" y2="200" />
    <line x1="0" y1="250" x2="600" y2="250" />
    <line x1="0" y1="300" x2="600" y2="300" />
    <line x1="0" y1="350" x2="600" y2="350" />
    
    <!-- Vertical Lines -->
    <line x1="50" y1="0" x2="50" y2="400" />
    <line x1="100" y1="0" x2="100" y2="400" />
    <line x1="150" y1="0" x2="150" y2="400" />
    <line x1="200" y1="0" x2="200" y2="400" />
    <line x1="250" y1="0" x2="250" y2="400" />
    <line x1="300" y1="0" x2="300" y2="400" />
    <line x1="350" y1="0" x2="350" y2="400" />
    <line x1="400" y1="0" x2="400" y2="400" />
    <line x1="450" y1="0" x2="450" y2="400" />
    <line x1="500" y1="0" x2="500" y2="400" />
    <line x1="550" y1="0" x2="550" y2="400" />
  </g>
  
  <!-- Abstract Shapes -->
  <rect x="150" y="100" width="300" height="200" rx="10" fill="#4f46e5" opacity="0.1" />
  <circle cx="200" cy="150" r="30" fill="#10b981" opacity="0.2" />
  <rect x="250" y="130" width="150" height="20" rx="5" fill="#6b7280" opacity="0.3" />
  <rect x="250" y="170" width="100" height="10" rx="5" fill="#6b7280" opacity="0.3" />
  <rect x="250" y="190" width="120" height="10" rx="5" fill="#6b7280" opacity="0.3" />
  <rect x="250" y="210" width="80" height="10" rx="5" fill="#6b7280" opacity="0.3" />
  
  <!-- Project Icon -->
  <g transform="translate(200, 230)">
    <!-- Folder Icon -->
    <path d="M-30,-20 L-10,-20 L0,-10 L30,-10 L30,20 L-30,20 Z" fill="#4f46e5" opacity="0.6" />
    <path d="M-10,-20 L0,-10 L-10,-10 Z" fill="#8b5cf6" opacity="0.6" />
    <!-- Code Element -->
    <path d="M-15,0 L-5,10 L-15,20" stroke="white" stroke-width="2" fill="none" />
    <path d="M15,0 L5,10 L15,20" stroke="white" stroke-width="2" fill="none" />
    <line x1="5" y1="0" x2="-5" y2="20" stroke="white" stroke-width="2" />
  </g>
  
  <!-- Text Placeholder -->
  <text x="300" y="300" font-family="Arial, sans-serif" font-size="18" fill="#4b5563" text-anchor="middle">Project Preview</text>
</svg> 